<?xml version="1.0" encoding="UTF-8" standalone="no"?>
<!DOCTYPE svg PUBLIC "-//W3C//DTD SVG 1.1//EN"
 "http://www.w3.org/Graphics/SVG/1.1/DTD/svg11.dtd">
<!-- Generated by graphviz version 2.40.1 (20161225.0304)
 -->
<!-- Title: finite_state_machine Pages: 1 -->
<svg width="379pt" height="183pt"
 viewBox="0.00 0.00 378.60 183.30" xmlns="http://www.w3.org/2000/svg" xmlns:xlink="http://www.w3.org/1999/xlink">
<g id="graph0" class="graph" transform="scale(1 1) rotate(0) translate(4 179.2976)">
<title>finite_state_machine</title>
<polygon fill="#ffffff" stroke="transparent" points="-4,4 -4,-179.2976 374.5952,-179.2976 374.5952,4 -4,4"/>
<!-- John -->
<g id="node1" class="node">
<title>John</title>
<ellipse fill="none" stroke="#000000" cx="106.2976" cy="-148" rx="27.0966" ry="27.0966"/>
<text text-anchor="middle" x="106.2976" y="-144.3" font-family="Times,serif" font-size="14.00" fill="#000000">John</text>
</g>
<!-- 2 -->
<g id="node2" class="node">
<title>2</title>
<ellipse fill="none" stroke="#000000" cx="194.5952" cy="-128" rx="18" ry="18"/>
<text text-anchor="middle" x="194.5952" y="-124.3" font-family="Times,serif" font-size="14.00" fill="#000000">2</text>
</g>
<!-- John&#45;&gt;2 -->
<g id="edge1" class="edge">
<title>John&#45;&gt;2</title>
<path fill="none" stroke="#000000" d="M133.2695,-141.8907C144.0309,-139.4531 156.4054,-136.6502 167.2076,-134.2035"/>
<polygon fill="#000000" stroke="#000000" points="167.999,-137.613 176.9787,-131.9902 166.4526,-130.7859 167.999,-137.613"/>
<text text-anchor="middle" x="155.0952" y="-140.8" font-family="Times,serif" font-size="14.00" fill="#000000">0</text>
</g>
<!-- 4 -->
<g id="node6" class="node">
<title>4</title>
<ellipse fill="none" stroke="#000000" cx="273.5952" cy="-71" rx="18" ry="18"/>
<text text-anchor="middle" x="273.5952" y="-67.3" font-family="Times,serif" font-size="14.00" fill="#000000">4</text>
</g>
<!-- 2&#45;&gt;4 -->
<g id="edge4" class="edge">
<title>2&#45;&gt;4</title>
<path fill="none" stroke="#000000" d="M209.4545,-117.2787C221.0405,-108.9192 237.3358,-97.1618 250.602,-87.59"/>
<polygon fill="#000000" stroke="#000000" points="252.7409,-90.3627 258.8025,-81.6732 248.6451,-84.6861 252.7409,-90.3627"/>
<text text-anchor="middle" x="234.0952" y="-104.8" font-family="Times,serif" font-size="14.00" fill="#000000">4</text>
</g>
<!-- 0 -->
<g id="node3" class="node">
<title>0</title>
<ellipse fill="none" stroke="#000000" cx="18" cy="-30" rx="18" ry="18"/>
<text text-anchor="middle" x="18" y="-26.3" font-family="Times,serif" font-size="14.00" fill="#000000">0</text>
</g>
<!-- 3 -->
<g id="node4" class="node">
<title>3</title>
<ellipse fill="none" stroke="#000000" cx="106.2976" cy="-71" rx="18" ry="18"/>
<text text-anchor="middle" x="106.2976" y="-67.3" font-family="Times,serif" font-size="14.00" fill="#000000">3</text>
</g>
<!-- 0&#45;&gt;3 -->
<g id="edge2" class="edge">
<title>0&#45;&gt;3</title>
<path fill="none" stroke="#000000" d="M34.6081,-37.7118C47.5577,-43.7248 65.7708,-52.1818 80.5984,-59.0669"/>
<polygon fill="#000000" stroke="#000000" points="79.22,-62.2857 89.764,-63.3228 82.1681,-55.9368 79.22,-62.2857"/>
<text text-anchor="middle" x="57.5" y="-52.8" font-family="Times,serif" font-size="14.00" fill="#000000">0</text>
</g>
<!-- 1 -->
<g id="node5" class="node">
<title>1</title>
<ellipse fill="none" stroke="#000000" cx="194.5952" cy="-18" rx="18" ry="18"/>
<text text-anchor="middle" x="194.5952" y="-14.3" font-family="Times,serif" font-size="14.00" fill="#000000">1</text>
</g>
<!-- 0&#45;&gt;1 -->
<g id="edge3" class="edge">
<title>0&#45;&gt;1</title>
<path fill="none" stroke="#000000" d="M36.2336,-28.761C67.1134,-26.6626 129.9012,-22.3961 166.4577,-19.912"/>
<polygon fill="#000000" stroke="#000000" points="166.721,-23.4023 176.4607,-19.2323 166.2464,-16.4184 166.721,-23.4023"/>
<text text-anchor="middle" x="106.2976" y="-28.8" font-family="Times,serif" font-size="14.00" fill="#000000">0</text>
</g>
<!-- 3&#45;&gt;2 -->
<g id="edge6" class="edge">
<title>3&#45;&gt;2</title>
<path fill="none" stroke="#000000" d="M121.6778,-80.9286C135.2254,-89.6742 155.1745,-102.5522 170.7835,-112.6285"/>
<polygon fill="#000000" stroke="#000000" points="169.0914,-115.7021 179.3911,-118.1851 172.8879,-109.821 169.0914,-115.7021"/>
<text text-anchor="middle" x="155.0952" y="-107.8" font-family="Times,serif" font-size="14.00" fill="#000000">2</text>
</g>
<!-- 3&#45;&gt;1 -->
<g id="edge7" class="edge">
<title>3&#45;&gt;1</title>
<path fill="none" stroke="#000000" d="M122.0834,-61.5247C135.3929,-53.5357 154.6664,-41.9669 169.9979,-32.7643"/>
<polygon fill="#000000" stroke="#000000" points="172.1732,-35.5407 178.946,-27.3933 168.5707,-29.5389 172.1732,-35.5407"/>
<text text-anchor="middle" x="155.0952" y="-45.8" font-family="Times,serif" font-size="14.00" fill="#000000">1</text>
</g>
<!-- 3&#45;&gt;4 -->
<g id="edge5" class="edge">
<title>3&#45;&gt;4</title>
<path fill="none" stroke="#000000" d="M124.5198,-71C153.5583,-71 210.5638,-71 245.0528,-71"/>
<polygon fill="#000000" stroke="#000000" points="245.3954,-74.5001 255.3954,-71 245.3953,-67.5001 245.3954,-74.5001"/>
<text text-anchor="middle" x="194.5952" y="-74.8" font-family="Times,serif" font-size="14.00" fill="#000000">5</text>
</g>
<!-- 1&#45;&gt;4 -->
<g id="edge8" class="edge">
<title>1&#45;&gt;4</title>
<path fill="none" stroke="#000000" d="M209.8272,-28.2189C221.1933,-35.8443 236.9365,-46.4062 249.936,-55.1274"/>
<polygon fill="#000000" stroke="#000000" points="248.1557,-58.1477 258.4099,-60.8124 252.0556,-52.3346 248.1557,-58.1477"/>
<text text-anchor="middle" x="234.0952" y="-49.8" font-family="Times,serif" font-size="14.00" fill="#000000">1</text>
</g>
<!-- 5 -->
<g id="node7" class="node">
<title>5</title>
<ellipse fill="none" stroke="#000000" cx="352.5952" cy="-30" rx="18" ry="18"/>
<text text-anchor="middle" x="352.5952" y="-26.3" font-family="Times,serif" font-size="14.00" fill="#000000">5</text>
</g>
<!-- 1&#45;&gt;5 -->
<g id="edge9" class="edge">
<title>1&#45;&gt;5</title>
<path fill="none" stroke="#000000" d="M212.7198,-19.3766C239.9564,-21.4452 291.6882,-25.3742 324.0328,-27.8307"/>
<polygon fill="#000000" stroke="#000000" points="323.9589,-31.3351 334.1952,-28.6025 324.4891,-24.3552 323.9589,-31.3351"/>
<text text-anchor="middle" x="273.5952" y="-28.8" font-family="Times,serif" font-size="14.00" fill="#000000">4</text>
</g>
<!-- 4&#45;&gt;5 -->
<g id="edge10" class="edge">
<title>4&#45;&gt;5</title>
<path fill="none" stroke="#000000" d="M289.582,-62.703C300.4322,-57.0719 315.004,-49.5093 327.4018,-43.0751"/>
<polygon fill="#000000" stroke="#000000" points="329.0974,-46.1384 336.361,-38.4253 325.8728,-39.9253 329.0974,-46.1384"/>
<text text-anchor="middle" x="313.0952" y="-54.8" font-family="Times,serif" font-size="14.00" fill="#000000">6</text>
</g>
</g>
</svg>
