<?xml version="1.0" encoding="UTF-8" standalone="no"?>
<!DOCTYPE svg PUBLIC "-//W3C//DTD SVG 1.1//EN"
 "http://www.w3.org/Graphics/SVG/1.1/DTD/svg11.dtd">
<!-- Generated by graphviz version 2.40.1 (20161225.0304)
 -->
<!-- Title: finite_state_machine Pages: 1 -->
<svg width="259pt" height="57pt"
 viewBox="0.00 0.00 258.99 57.40" xmlns="http://www.w3.org/2000/svg" xmlns:xlink="http://www.w3.org/1999/xlink">
<g id="graph0" class="graph" transform="scale(1 1) rotate(0) translate(4 53.3956)">
<title>finite_state_machine</title>
<polygon fill="#ffffff" stroke="transparent" points="-4,4 -4,-53.3956 254.9885,-53.3956 254.9885,4 -4,4"/>
<!-- moi -->
<g id="node1" class="node">
<title>moi</title>
<ellipse fill="none" stroke="#000000" cx="121.9942" cy="-24.6978" rx="24.8972" ry="24.8972"/>
<text text-anchor="middle" x="121.9942" y="-20.9978" font-family="Times,serif" font-size="14.00" fill="#000000">moi</text>
</g>
<!-- lui -->
<g id="node2" class="node">
<title>lui</title>
<ellipse fill="none" stroke="#000000" cx="230.8403" cy="-24.6978" rx="20.2975" ry="20.2975"/>
<text text-anchor="middle" x="230.8403" y="-20.9978" font-family="Times,serif" font-size="14.00" fill="#000000">lui</text>
</g>
<!-- moi&#45;&gt;lui -->
<g id="edge1" class="edge">
<title>moi&#45;&gt;lui</title>
<path fill="none" stroke="#000000" d="M146.6931,-24.6978C162.5404,-24.6978 183.2382,-24.6978 200.1404,-24.6978"/>
<polygon fill="#000000" stroke="#000000" points="200.6103,-28.1979 210.6103,-24.6978 200.6103,-21.1979 200.6103,-28.1979"/>
<text text-anchor="middle" x="178.692" y="-28.4978" font-family="Times,serif" font-size="14.00" fill="#000000">1022</text>
</g>
<!-- toi -->
<g id="node3" class="node">
<title>toi</title>
<ellipse fill="none" stroke="#000000" cx="20.1482" cy="-24.6978" rx="20.2975" ry="20.2975"/>
<text text-anchor="middle" x="20.1482" y="-20.9978" font-family="Times,serif" font-size="14.00" fill="#000000">toi</text>
</g>
<!-- toi&#45;&gt;moi -->
<g id="edge2" class="edge">
<title>toi&#45;&gt;moi</title>
<path fill="none" stroke="#000000" d="M40.7583,-24.6978C53.9816,-24.6978 71.4925,-24.6978 86.87,-24.6978"/>
<polygon fill="#000000" stroke="#000000" points="87.0962,-28.1979 97.0962,-24.6978 87.0961,-21.1979 87.0962,-28.1979"/>
<text text-anchor="middle" x="68.7964" y="-28.4978" font-family="Times,serif" font-size="14.00" fill="#000000">506</text>
</g>
</g>
</svg>
