<?xml version="1.0" encoding="UTF-8" standalone="no"?>
<!DOCTYPE svg PUBLIC "-//W3C//DTD SVG 1.1//EN"
 "http://www.w3.org/Graphics/SVG/1.1/DTD/svg11.dtd">
<!-- Generated by graphviz version 2.40.1 (20161225.0304)
 -->
<!-- Title: finite_state_machine Pages: 1 -->
<svg width="297pt" height="180pt"
 viewBox="0.00 0.00 297.19 180.00" xmlns="http://www.w3.org/2000/svg" xmlns:xlink="http://www.w3.org/1999/xlink">
<g id="graph0" class="graph" transform="scale(1 1) rotate(0) translate(4 176)">
<title>finite_state_machine</title>
<polygon fill="#ffffff" stroke="transparent" points="-4,4 -4,-176 293.1857,-176 293.1857,4 -4,4"/>
<!-- Kate -->
<g id="node1" class="node">
<title>Kate</title>
<ellipse fill="none" stroke="#000000" cx="145.8927" cy="-61" rx="27.0966" ry="27.0966"/>
<text text-anchor="middle" x="145.8927" y="-57.3" font-family="Times,serif" font-size="14.00" fill="#000000">Kate</text>
</g>
<!-- Ann -->
<g id="node2" class="node">
<title>Ann</title>
<ellipse fill="none" stroke="#000000" cx="263.188" cy="-61" rx="25.9954" ry="25.9954"/>
<text text-anchor="middle" x="263.188" y="-57.3" font-family="Times,serif" font-size="14.00" fill="#000000">Ann</text>
</g>
<!-- Kate&#45;&gt;Ann -->
<g id="edge1" class="edge">
<title>Kate&#45;&gt;Ann</title>
<path fill="none" stroke="#000000" d="M173.3933,-61C189.3185,-61 209.5601,-61 226.7924,-61"/>
<polygon fill="#000000" stroke="#000000" points="227.0676,-64.5001 237.0676,-61 227.0676,-57.5001 227.0676,-64.5001"/>
<text text-anchor="middle" x="205.1903" y="-64.8" font-family="Times,serif" font-size="14.00" fill="#000000">1000</text>
</g>
<!-- John -->
<g id="node3" class="node">
<title>John</title>
<ellipse fill="none" stroke="#000000" cx="27.2976" cy="-124" rx="27.0966" ry="27.0966"/>
<text text-anchor="middle" x="27.2976" y="-120.3" font-family="Times,serif" font-size="14.00" fill="#000000">John</text>
</g>
<!-- John&#45;&gt;Kate -->
<g id="edge3" class="edge">
<title>John&#45;&gt;Kate</title>
<path fill="none" stroke="#000000" d="M51.5833,-111.099C69.2508,-101.7137 93.3788,-88.8964 112.8069,-78.5758"/>
<polygon fill="#000000" stroke="#000000" points="114.4502,-81.6661 121.6395,-73.8838 111.1663,-75.4842 114.4502,-81.6661"/>
<text text-anchor="middle" x="86.5952" y="-101.8" font-family="Times,serif" font-size="14.00" fill="#000000">1010</text>
</g>
<!-- John&#45;&gt;Ann -->
<g id="edge2" class="edge">
<title>John&#45;&gt;Ann</title>
<path fill="none" stroke="#000000" d="M51.6703,-136.6477C81.3726,-150.2501 132.6149,-167.8072 173.1903,-151 202.3866,-138.9063 227.0494,-112.2364 243.1321,-91.0509"/>
<polygon fill="#000000" stroke="#000000" points="245.981,-93.0845 249.0736,-82.951 240.3367,-88.9441 245.981,-93.0845"/>
<text text-anchor="middle" x="145.8927" y="-160.8" font-family="Times,serif" font-size="14.00" fill="#000000">1010</text>
</g>
<!-- 4 -->
<g id="node4" class="node">
<title>4</title>
<ellipse fill="none" stroke="#000000" cx="145.8927" cy="-124" rx="18" ry="18"/>
<text text-anchor="middle" x="145.8927" y="-120.3" font-family="Times,serif" font-size="14.00" fill="#000000">4</text>
</g>
<!-- John&#45;&gt;4 -->
<g id="edge4" class="edge">
<title>John&#45;&gt;4</title>
<path fill="none" stroke="#000000" d="M54.8038,-124C73.6531,-124 98.5872,-124 117.6022,-124"/>
<polygon fill="#000000" stroke="#000000" points="117.7516,-127.5001 127.7516,-124 117.7516,-120.5001 117.7516,-127.5001"/>
<text text-anchor="middle" x="86.5952" y="-127.8" font-family="Times,serif" font-size="14.00" fill="#000000">0</text>
</g>
<!-- 0 -->
<g id="node5" class="node">
<title>0</title>
<ellipse fill="none" stroke="#000000" cx="27.2976" cy="-18" rx="18" ry="18"/>
<text text-anchor="middle" x="27.2976" y="-14.3" font-family="Times,serif" font-size="14.00" fill="#000000">0</text>
</g>
<!-- 0&#45;&gt;Kate -->
<g id="edge5" class="edge">
<title>0&#45;&gt;Kate</title>
<path fill="none" stroke="#000000" d="M44.6131,-23.2364C59.5525,-27.857 81.6495,-34.9381 100.5952,-42 104.0762,-43.2975 107.6842,-44.7037 111.2751,-46.1438"/>
<polygon fill="#000000" stroke="#000000" points="110.0615,-49.429 120.6417,-49.9844 112.7171,-42.9523 110.0615,-49.429"/>
<text text-anchor="middle" x="86.5952" y="-45.8" font-family="Times,serif" font-size="14.00" fill="#000000">0</text>
</g>
<!-- 0&#45;&gt;Ann -->
<g id="edge6" class="edge">
<title>0&#45;&gt;Ann</title>
<path fill="none" stroke="#000000" d="M45.1714,-13.5326C73.0392,-7.3388 128.3032,1.8343 173.1903,-10 195.0764,-15.7702 217.2256,-28.2197 234.0744,-39.3735"/>
<polygon fill="#000000" stroke="#000000" points="232.1419,-42.2921 242.3726,-45.0459 236.0922,-36.5132 232.1419,-42.2921"/>
<text text-anchor="middle" x="145.8927" y="-13.8" font-family="Times,serif" font-size="14.00" fill="#000000">0</text>
</g>
</g>
</svg>
